<?xml version="1.0" encoding="UTF-8"?>
<svg xmlns="http://www.w3.org/2000/svg" version="1.1" viewBox="0 0 1050 600">
  <!-- Generator: Adobe Illustrator 29.4.0, SVG Export Plug-In . SVG Version: 2.1.0 Build 152)  -->
  <defs>
    <style>
      .st0, .st1, .st2, .st3, .st4, .st5, .st6, .st7, .st8, .st9, .st10, .st11, .st12, .st13, .st14, .st15, .st16, .st17, .st18, .st19, .st20, .st21, .st22, .st23, .st24, .st25, .st26, .st27, .st28, .st29, .st30, .st31, .st32, .st33, .st34, .st35, .st36, .st37, .st38, .st39, .st40, .st41, .st42, .st43, .st44, .st45, .st46, .st47, .st48, .st49 {
        isolation: isolate;
      }

      .st0, .st1, .st2, .st3, .st4, .st5, .st6, .st7, .st8, .st9, .st11, .st12, .st15, .st16, .st18, .st19, .st20, .st21, .st22, .st23, .st24, .st26, .st27, .st28, .st29, .st30, .st31, .st32, .st33, .st34, .st35, .st36, .st37, .st38, .st39, .st40, .st41, .st42, .st43, .st44, .st45, .st46, .st47, .st48 {
        mix-blend-mode: multiply;
      }

      .st0, .st1, .st2, .st3, .st4, .st5, .st6, .st7, .st8, .st9, .st11, .st15, .st16, .st18, .st19, .st20, .st21, .st22, .st23, .st24, .st26, .st27, .st28, .st29, .st30, .st31, .st32, .st33, .st34, .st35, .st36, .st37, .st38, .st39, .st40, .st41, .st42, .st43, .st44, .st45, .st46, .st47, .st48 {
        fill: none;
      }

      .st0, .st3, .st6, .st7, .st8, .st9, .st15, .st16, .st18, .st19, .st20, .st21, .st22, .st23, .st27, .st29, .st30, .st31, .st32, .st33, .st34, .st35, .st36, .st37, .st38, .st39, .st40, .st41, .st42, .st43, .st44, .st45, .st46 {
        stroke-miterlimit: 10;
      }

      .st0, .st18, .st27, .st29, .st30, .st31, .st32, .st33, .st35 {
        stroke: #da4f40;
      }

      .st1, .st2, .st28 {
        stroke: #e6e43a;
      }

      .st2, .st3, .st22, .st30, .st34, .st40, .st48 {
        stroke-width: 3px;
      }

      .st3, .st9, .st16, .st41, .st42, .st43, .st44, .st45, .st46 {
        stroke: #1f5592;
      }

      .st4 {
        stroke: #59b34f;
      }

      .st5, .st26, .st48 {
        stroke: #72bb4c;
      }

      .st6, .st15, .st20, .st22, .st23, .st24 {
        stroke: #7ebf4b;
      }

      .st7, .st19, .st34, .st39 {
        stroke: #f7ce65;
      }

      .st8, .st21, .st36, .st37, .st38, .st40 {
        stroke: #008456;
      }

      .st9, .st15, .st18, .st19, .st21, .st24, .st26, .st28 {
        stroke-width: 2px;
      }

      .st10, .st14, .st17 {
        font-family: Timeless-Normal, Timeless;
      }

      .st10, .st25 {
        font-size: 11px;
      }

      .st11 {
        stroke: #6cb94d;
      }

      .st14 {
        fill: #606060;
      }

      .st14, .st17 {
        font-size: 10px;
      }

      .st20, .st37 {
        stroke-width: 5.1px;
      }

      .st23 {
        stroke-width: 4.1px;
      }

      .st25 {
        font-family: Timeless-Bold, Timeless;
        font-weight: 700;
      }

      .st27, .st42 {
        stroke-width: 6.1px;
      }

      .st29, .st43 {
        stroke-width: 5.1px;
      }

      .st31, .st36, .st39, .st41 {
        stroke-width: 4.1px;
      }

      .st32 {
        stroke-width: 23.2px;
      }

      .st33 {
        stroke-width: 14.2px;
      }

      .st35 {
        stroke-width: 11.2px;
      }

      .st38 {
        stroke-width: 7.1px;
      }

      .st44 {
        stroke-width: 8.1px;
      }

      .st45 {
        stroke-width: 12.2px;
      }

      .st46 {
        stroke-width: 15.2px;
      }

      .st47 {
        stroke: #85c14b;
      }

      .st49 {
        fill: #fff;
        opacity: .5;
      }
    </style>
  </defs>
  <g class="st13">
    <g id="Capa_1">
      <g>
        <path d="M542,85v6.1h-2v-6.1h2Z"/>
        <path d="M542,101.1v10.1h-2v-10.1h2Z"/>
        <path d="M542,121.2v3.1h-2v-3.1h2Z"/>
        <path d="M540,134.3h2v1h-2v-1Z"/>
        <path d="M542,145.3v4h-2v-4h2Z"/>
        <path d="M542,159.3v9.2h-2v-9.2h2Z"/>
        <path d="M542,178.5v2h-2v-2h2Z"/>
        <path d="M542,190.5v4.1h-2v-4.1h2Z"/>
        <path d="M540,204.6h2v1h-2v-1Z"/>
        <path d="M542,215.6v20.3h-2v-20.3h2Z"/>
        <path d="M542,245.9v4h-2v-4h2Z"/>
        <path d="M542,259.9v5.1h-2v-5.1h2Z"/>
        <path d="M542,275v11.2h-2v-11.2h2Z"/>
        <path d="M542,296.2v2h-2v-2h2Z"/>
        <path d="M542,308.2v39.6h-2v-39.6h2Z"/>
        <path d="M542,357.8v3h-2v-3h2Z"/>
        <path d="M542,370.8v7.1h-2v-7.1h2Z"/>
        <path d="M542,387.9v10.1h-2v-10.1h2Z"/>
        <path d="M542,408v25.4h-2v-25.4h2Z"/>
        <path d="M540,443.4h2v1h-2v-1Z"/>
        <path d="M542,454.4v5.1h-2v-5.1h2Z"/>
        <path d="M542,469.5v5.1h-2v-5.1h2Z"/>
        <path d="M542,484.6v30.4h-2v-30.4h2Z"/>
        <path d="M931,10v10.1h-2v-10.1h2Z"/>
        <path d="M931,30.1v2.1h-2v-2.1h2Z"/>
        <path d="M931,42.2v9.1h-2v-9.1s2,0,2,0Z"/>
        <path d="M931,61.3v9.1h-2v-9.1s2,0,2,0Z"/>
        <path d="M931,80.4v7.1h-2v-7.1h2Z"/>
        <path d="M153,185v24.3h-2v-24.3h2Z"/>
        <path d="M153,219.3v82.2h-2v-82.2h2Z"/>
        <path d="M153,311.5v103.5h-2v-103.5h2Z"/>
        <path d="M931,97.5v25.4h-2v-25.4h2Z"/>
        <path d="M931,132.9v7.1h-2v-7.1h2Z"/>
        <path d="M931,150v12.2h-2v-12.2h2Z"/>
        <path d="M931,172.2v6.1h-2v-6.1h2Z"/>
        <path d="M931,188.3v3h-2v-3h2Z"/>
        <path d="M931,201.3v13.2h-2v-13.2h2Z"/>
        <path d="M931,224.5v2h-2v-2h2Z"/>
        <path d="M931,236.5v4.1h-2v-4.1h2Z"/>
        <path d="M931,250.6v2h-2v-2h2Z"/>
        <path d="M931,262.6v3.1h-2v-3.1h2Z"/>
        <path d="M931,275.7v4h-2v-4h2Z"/>
        <path d="M929,289.7h2v1h-2v-1Z"/>
        <path d="M929,300.7h2v1h-2v-1Z"/>
        <path d="M931,311.7v6.1h-2v-6.1h2Z"/>
        <path d="M931,327.8v2.1h-2v-2.1h2Z"/>
        <path d="M931,339.9v4h-2v-4h2Z"/>
        <path d="M931,353.9v15.2h-2v-15.2h2Z"/>
        <path d="M931,379.1v7.1h-2v-7.1h2Z"/>
        <path d="M931,396.2v5.1h-2v-5.1h2Z"/>
        <path d="M931,411.3v2h-2v-2h2Z"/>
        <path d="M931,423.3v2.1h-2v-2.1h2Z"/>
        <path d="M931,435.4v3h-2v-3h2Z"/>
        <path d="M931,448.4v3h-2v-3h2Z"/>
        <path d="M929,461.4h2v1.1h-2v-1.1Z"/>
        <path d="M929,472.5h2v1h-2v-1Z"/>
        <path d="M929,483.5h2v1h-2v-1Z"/>
        <path d="M931,494.5v8.1h-2v-8.1h2Z"/>
        <path d="M929,512.6h2v1h-2v-1Z"/>
        <path d="M931,523.6v4.1h-2v-4.1h2Z"/>
        <path d="M931,537.7v2h-2v-2h2Z"/>
        <path d="M931,549.7v11.2h-2v-11.2h2Z"/>
        <path d="M931,570.9v6.1h-2v-6.1h2Z"/>
        <path d="M931,587v3h-2v-3h2Z"/>
      </g>
      <g class="st12">
        <path class="st33" d="M153,390.7c193.5,0,193.5,35.6,387,35.6"/>
      </g>
      <g class="st12">
        <path class="st35" d="M153,409.4c193.5,0,193.5,100,387,100"/>
      </g>
      <g class="st12">
        <path class="st34" d="M153,202.8c193.5,0,193.5,206.8,387,206.8"/>
      </g>
      <g class="st12">
        <path class="st9" d="M153,251.8c193.5,0,193.5,45.4,387,45.4"/>
      </g>
      <g class="st12">
        <path class="st46" d="M153,293.9c193.5,0,193.5,202.3,387,202.3"/>
      </g>
      <g class="st12">
        <path class="st27" d="M153,322.7c193.5,0,193.5-157.3,387-157.3"/>
      </g>
      <g class="st12">
        <path class="st30" d="M153,313c193.5,0,193.5-223.4,387-223.4"/>
      </g>
      <g class="st12">
        <path class="st43" d="M153,224.9c193.5,0,193.5-120.3,387-120.3"/>
      </g>
      <g class="st12">
        <path class="st30" d="M153,342.5c193.5,0,193.5-94.1,387-94.1"/>
      </g>
      <g class="st12">
        <path class="st32" d="M153,363.8c193.5,0,193.5-27.7,387-27.7"/>
      </g>
      <g class="st12">
        <path class="st18" d="M153,326.7c193.5,0,193.5-147.2,387-147.2"/>
      </g>
      <g class="st12">
        <path class="st9" d="M153,285.3c193.5,0,193.5,186.2,387,186.2"/>
      </g>
      <g class="st12">
        <path class="st45" d="M153,258.9c193.5,0,193.5,59.4,387,59.4"/>
      </g>
      <g class="st12">
        <path class="st9" d="M153,283.3c193.5,0,193.5,172.1,387,172.1"/>
      </g>
      <g class="st12">
        <path class="st41" d="M153,272.1c193.5,0,193.5,117.8,387,117.8"/>
      </g>
      <g class="st12">
        <path class="st41" d="M153,248.8c193.5,0,193.5,30.3,387,30.3"/>
      </g>
      <g class="st12">
        <path class="st39" d="M153,207.3c193.5,0,193.5,279.3,387,279.3"/>
      </g>
      <g class="st12">
        <path class="st30" d="M153,400.3c193.5,0,193.5,57.7,387,57.7"/>
      </g>
      <g class="st12">
        <path class="st30" d="M153,345.5c193.5,0,193.5-82,387-82"/>
      </g>
      <g class="st12">
        <path class="st39" d="M153,196.2c193.5,0,193.5,114,387,114"/>
      </g>
      <g class="st12">
        <path class="st7" d="M153,186.5c193.5,0,193.5-51.7,387-51.7"/>
      </g>
      <g class="st12">
        <path class="st42" d="M153,240.7c193.5,0,193.5-19,387-19"/>
      </g>
      <g class="st12">
        <path class="st7" d="M153,188.6c193.5,0,193.5,2.4,387,2.4"/>
      </g>
      <g class="st12">
        <path class="st35" d="M153,335.4c193.5,0,193.5-105.1,387-105.1"/>
      </g>
      <g class="st12">
        <path class="st18" d="M153,402.8c193.5,0,193.5,70.8,387,70.8"/>
      </g>
      <g class="st12">
        <path class="st16" d="M153,236.1c193.5,0,193.5-44.1,387-44.1"/>
      </g>
      <g class="st12">
        <path class="st9" d="M153,234.6c193.5,0,193.5-73.2,387-73.2"/>
      </g>
      <g class="st12">
        <path class="st3" d="M153,266.5c193.5,0,193.5,92.8,387,92.8"/>
      </g>
      <g class="st12">
        <path class="st18" d="M153,328.8c193.5,0,193.5-135.2,387-135.2"/>
      </g>
      <g class="st12">
        <path class="st3" d="M153,220.9c193.5,0,193.5-134.4,387-134.4"/>
      </g>
      <g class="st12">
        <path class="st34" d="M153,190.6c193.5,0,193.5,26.5,387,26.5"/>
      </g>
      <g class="st12">
        <path class="st44" d="M153,278.2c193.5,0,193.5,136.9,387,136.9"/>
      </g>
      <g class="st12">
        <path class="st3" d="M153,229c193.5,0,193.5-106.2,387-106.2"/>
      </g>
      <g class="st12">
        <path class="st29" d="M153,349.6c193.5,0,193.5-66,387-66"/>
      </g>
      <g class="st12">
        <path class="st7" d="M153,204.8c193.5,0,193.5,265.2,387,265.2"/>
      </g>
      <g class="st12">
        <path class="st3" d="M153,232c193.5,0,193.5-85.2,387-85.2"/>
      </g>
      <g class="st12">
        <path class="st16" d="M153,244.2c193.5,0,193.5,2.2,387,2.2"/>
      </g>
      <g class="st12">
        <path class="st19" d="M153,193.1c193.5,0,193.5,82.9,387,82.9"/>
      </g>
      <g class="st12">
        <path class="st0" d="M153,319.1c193.5,0,193.5-170.3,387-170.3"/>
      </g>
      <g class="st12">
        <path class="st34" d="M153,199.7c193.5,0,193.5,172.6,387,172.6"/>
      </g>
      <g class="st12">
        <path class="st31" d="M153,316.6c193.5,0,193.5-207.4,387-207.4"/>
      </g>
      <g class="st12">
        <path class="st27" d="M153,380.5c193.5,0,193.5,14.5,387,14.5"/>
      </g>
      <g class="st12">
        <path class="st9" d="M153,245.7c193.5,0,193.5,15.2,387,15.2"/>
      </g>
      <g class="st12">
        <path class="st9" d="M153,269.1c193.5,0,193.5,105.8,387,105.8"/>
      </g>
      <g class="st12">
        <path class="st16" d="M153,237.1c193.5,0,193.5-32,387-32"/>
      </g>
      <g class="st12">
        <path class="st0" d="M153,398.3c193.5,0,193.5,45.6,387,45.6"/>
      </g>
      <g class="st12">
        <path class="st18" d="M153,376.4c193.5,0,193.5.5,387,.5"/>
      </g>
      <g class="st12">
        <path class="st7" d="M153,185.5c193.5,0,193.5-83.9,387-83.9"/>
      </g>
      <g class="st12">
        <path class="st7" d="M153,187.5c193.5,0,193.5-27.6,387-27.6"/>
      </g>
      <path class="st8" d="M542,413.6c193.5,0,193.5-345.7,387-345.7"/>
      <path class="st8" d="M542,511.4c193.5,0,193.5,27.8,387,27.8"/>
      <path class="st8" d="M542,423.8c193.5,0,193.5-57.2,387-57.2"/>
      <path class="st6" d="M542,297.7c193.5,0,193.5,227.4,387,227.4"/>
      <path class="st8" d="M542,504.3c193.5,0,193.5-264.2,387-264.2"/>
      <path class="st1" d="M542,160.9c193.5,0,193.5-99.1,387-99.1"/>
      <path class="st21" d="M542,495.7c193.5,0,193.5-305.4,387-305.4"/>
      <path class="st2" d="M542,86.5c193.5,0,193.5,12.6,387,12.6"/>
      <g class="st12">
        <path class="st21" d="M542,425.3c193.5,0,193.5-41.1,387-41.1"/>
      </g>
      <path class="st1" d="M542,103.1c193.5,0,193.5-1.5,387-1.5"/>
      <path class="st38" d="M542,500.3c193.5,0,193.5-289.4,387-289.4"/>
      <path class="st21" d="M542,513c193.5,0,193.5,46.9,387,46.9"/>
      <path class="st8" d="M542,490.1c193.5,0,193.5-420.2,387-420.2"/>
      <path class="st6" d="M542,296.7c193.5,0,193.5-161.3,387-161.3"/>
      <path class="st11" d="M542,249.4c193.5,0,193.5,108.1,387,108.1"/>
      <path class="st23" d="M542,334.6c193.5,0,193.5,27.4,387,27.4"/>
      <path class="st47" d="M542,179c193.5,0,193.5-136.3,387-136.3"/>
      <path class="st8" d="M542,494.2c193.5,0,193.5-332.5,387-332.5"/>
      <path class="st22" d="M542,338.1c193.5,0,193.5,43.6,387,43.6"/>
      <path class="st8" d="M542,471c193.5,0,193.5-350.6,387-350.6"/>
      <path class="st23" d="M542,314.3c193.5,0,193.5-201.5,387-201.5"/>
      <path class="st8" d="M542,457c193.5,0,193.5-337.7,387-337.7"/>
      <path class="st21" d="M542,397c193.5,0,193.5,157.8,387,157.8"/>
      <path class="st6" d="M542,285.7c193.5,0,193.5,266.5,387,266.5"/>
      <path class="st37" d="M542,487.1c193.5,0,193.5-438.3,387-438.3"/>
      <path class="st20" d="M542,321.9c193.5,0,193.5-166.3,387-166.3"/>
      <g class="st12">
        <path class="st21" d="M542,419.2c193.5,0,193.5-259.1,387-259.1"/>
      </g>
      <path class="st8" d="M542,455.9c193.5,0,193.5-387,387-387"/>
      <path class="st6" d="M542,261.4c193.5,0,193.5-197.6,387-197.6"/>
      <path class="st15" d="M542,309.2c193.5,0,193.5-297.2,387-297.2"/>
      <g class="st12">
        <path class="st36" d="M542,410.1c193.5,0,193.5-392,387-392"/>
      </g>
      <path class="st6" d="M542,343.2c193.5,0,193.5,81.7,387,81.7"/>
      <path class="st1" d="M542,134.8c193.5,0,193.5,315.1,387,315.1"/>
      <path class="st26" d="M542,218.6c193.5,0,193.5-109.9,387-109.9"/>
      <path class="st6" d="M542,191c193.5,0,193.5-84.8,387-84.8"/>
      <path class="st5" d="M542,222.2c193.5,0,193.5,29.9,387,29.9"/>
      <path class="st15" d="M542,331.5c193.5,0,193.5,10.4,387,10.4"/>
      <path class="st8" d="M542,506.4c193.5,0,193.5-163,387-163"/>
      <path class="st8" d="M542,472c193.5,0,193.5-104.4,387-104.4"/>
      <path class="st26" d="M542,216.6c193.5,0,193.5-134.1,387-134.1"/>
      <path class="st47" d="M542,180c193.5,0,193.5-117.2,387-117.2"/>
      <path class="st6" d="M542,264.5c193.5,0,193.5,324,387,324"/>
      <path class="st6" d="M542,246.4c193.5,0,193.5-73.7,387-73.7"/>
      <path class="st8" d="M542,458c193.5,0,193.5-251.1,387-251.1"/>
      <path class="st8" d="M542,428.8c193.5,0,193.5,72.3,387,72.3"/>
      <path class="st6" d="M542,192c193.5,0,193.5,9.8,387,9.8"/>
      <path class="st1" d="M542,161.9c193.5,0,193.5-56.8,387-56.8"/>
      <path class="st8" d="M542,420.7c193.5,0,193.5-242.9,387-242.9"/>
      <path class="st6" d="M542,311.7c193.5,0,193.5-227.7,387-227.7"/>
      <path class="st8" d="M542,358.3c193.5,0,193.5-273.3,387-273.3"/>
      <path class="st6" d="M542,329c193.5,0,193.5-12.7,387-12.7"/>
      <path class="st6" d="M542,344.2c193.5,0,193.5,106.7,387,106.7"/>
      <path class="st24" d="M542,193.6c193.5,0,193.5,303.9,387,303.9"/>
      <path class="st1" d="M542,89.6c193.5,0,193.5,161.5,387,161.5"/>
      <path class="st8" d="M542,360.3c193.5,0,193.5-121.2,387-121.2"/>
      <path class="st26" d="M542,220.7c193.5,0,193.5-68.7,387-68.7"/>
      <path class="st8" d="M542,427.8c193.5,0,193.5,45.2,387,45.2"/>
      <path class="st1" d="M542,121.7c193.5,0,193.5-18.6,387-18.6"/>
      <path class="st6" d="M542,345.2c193.5,0,193.5,193,387,193"/>
      <path class="st8" d="M542,412.6c193.5,0,193.5-368.9,387-368.9"/>
      <path class="st6" d="M542,263.5c193.5,0,193.5,95,387,95"/>
      <path class="st23" d="M542,279.1c193.5,0,193.5-103.9,387-103.9"/>
      <path class="st6" d="M542,284.6c193.5,0,193.5,239.5,387,239.5"/>
      <path class="st8" d="M542,470c193.5,0,193.5-424.3,387-424.3"/>
      <path class="st6" d="M542,346.2c193.5,0,193.5,207.1,387,207.1"/>
      <path class="st1" d="M542,145.8c193.5,0,193.5-41.7,387-41.7"/>
      <path class="st8" d="M542,514.5c193.5,0,193.5,61.9,387,61.9"/>
      <path class="st8" d="M542,426.8c193.5,0,193.5,35.2,387,35.2"/>
      <path class="st11" d="M542,248.4c193.5,0,193.5,92,387,92"/>
      <path class="st6" d="M542,276.5c193.5,0,193.5-166.3,387-166.3"/>
      <path class="st1" d="M542,104.6c193.5,0,193.5,28.8,387,28.8"/>
      <path class="st21" d="M542,492.7c193.5,0,193.5-370.8,387-370.8"/>
      <path class="st26" d="M542,231.8c193.5,0,193.5,267.8,387,267.8"/>
      <g class="st12">
        <path class="st40" d="M542,430.9c193.5,0,193.5,126.4,387,126.4"/>
      </g>
      <path class="st22" d="M542,317.8c193.5,0,193.5-180.3,387-180.3"/>
      <path class="st6" d="M542,282.6c193.5,0,193.5,76.9,387,76.9"/>
      <path class="st1" d="M542,148.8c193.5,0,193.5,364.3,387,364.3"/>
      <path class="st21" d="M542,376.9c193.5,0,193.5-11.8,387-11.8"/>
      <path class="st48" d="M542,228.3c193.5,0,193.5,127.1,387,127.1"/>
      <path class="st1" d="M542,164.9c193.5,0,193.5,258.9,387,258.9"/>
      <path class="st28" d="M542,107.2c193.5,0,193.5,388.3,387,388.3"/>
      <path class="st8" d="M542,422.8c193.5,0,193.5-216.9,387-216.9"/>
      <path class="st8" d="M542,392.5c193.5,0,193.5-233.9,387-233.9"/>
      <g class="st12">
        <path class="st40" d="M542,416.7c193.5,0,193.5-299.4,387-299.4"/>
      </g>
      <path class="st8" d="M542,393.5c193.5,0,193.5-128.4,387-128.4"/>
      <path class="st28" d="M542,110.2c193.5,0,193.5,461.7,387,461.7"/>
      <path class="st21" d="M542,388.9c193.5,0,193.5-373.8,387-373.8"/>
      <path class="st6" d="M542,262.5c193.5,0,193.5-128.1,387-128.1"/>
      <path class="st22" d="M542,341.2c193.5,0,193.5,56.6,387,56.6"/>
      <path class="st8" d="M542,509.4c193.5,0,193.5-7.3,387-7.3"/>
      <path class="st6" d="M542,310.7c193.5,0,193.5-245.8,387-245.8"/>
      <path class="st8" d="M542,508.4c193.5,0,193.5-122.7,387-122.7"/>
      <path class="st5" d="M542,235.4c193.5,0,193.5,352.1,387,352.1"/>
      <path class="st8" d="M542,432.9c193.5,0,193.5,156.6,387,156.6"/>
      <path class="st8" d="M542,372.3c193.5,0,193.5-257,387-257"/>
      <path class="st6" d="M542,205.1c193.5,0,193.5-97.9,387-97.9"/>
      <path class="st4" d="M542,281.6c193.5,0,193.5-78.8,387-78.8"/>
      <path class="st21" d="M542,390.9c193.5,0,193.5-324.5,387-324.5"/>
      <path class="st1" d="M542,146.8c193.5,0,193.5,90.2,387,90.2"/>
      <path class="st8" d="M542,443.9c193.5,0,193.5-44.1,387-44.1"/>
      <path class="st8" d="M542,421.7c193.5,0,193.5-232.9,387-232.9"/>
      <path class="st6" d="M542,327c193.5,0,193.5-89,387-89"/>
      <path class="st15" d="M542,325.4c193.5,0,193.5-121.1,387-121.1"/>
      <path class="st8" d="M542,473c193.5,0,193.5-72.2,387-72.2"/>
      <path class="st1" d="M542,105.7c193.5,0,193.5,343.2,387,343.2"/>
      <path class="st6" d="M542,283.6c193.5,0,193.5,153.3,387,153.3"/>
      <path class="st1" d="M542,147.8c193.5,0,193.5,142.4,387,142.4"/>
      <path class="st1" d="M542,163.9c193.5,0,193.5,149.4,387,149.4"/>
      <path class="st8" d="M542,414.6c193.5,0,193.5-328.6,387-328.6"/>
      <path class="st21" d="M542,373.8c193.5,0,193.5-110.2,387-110.2"/>
      <path class="st1" d="M542,165.9c193.5,0,193.5,270,387,270"/>
      <path class="st6" d="M542,347.2c193.5,0,193.5,228.2,387,228.2"/>
      <path class="st8" d="M542,459c193.5,0,193.5-21.1,387-21.1"/>
      <path class="st8" d="M542,395.5c193.5,0,193.5,17.3,387,17.3"/>
      <path class="st1" d="M542,101.6c193.5,0,193.5-20.7,387-20.7"/>
      <path class="st8" d="M542,510.4c193.5,0,193.5,16.8,387,16.8"/>
      <path class="st8" d="M542,507.4c193.5,0,193.5-138.8,387-138.8"/>
      <path class="st26" d="M542,225.7c193.5,0,193.5,89.1,387,89.1"/>
      <path class="st8" d="M542,474.1c193.5,0,193.5,52.1,387,52.1"/>
      <path class="st1" d="M542,90.6c193.5,0,193.5,221.6,387,221.6"/>
      <path class="st6" d="M542,330c193.5,0,193.5-1.7,387-1.7"/>
      <path class="st6" d="M542,275.5c193.5,0,193.5-265,387-265"/>
      <path class="st8" d="M542,454.9c193.5,0,193.5-410.2,387-410.2"/>
      <path class="st8" d="M542,505.4c193.5,0,193.5-226.2,387-226.2"/>
      <path class="st26" d="M542,223.7c193.5,0,193.5,54,387,54"/>
      <path class="st8" d="M542,371.3c193.5,0,193.5-357.7,387-357.7"/>
      <path class="st1" d="M542,108.7c193.5,0,193.5,441.5,387,441.5"/>
      <path class="st5" d="M542,230.3c193.5,0,193.5,149.3,387,149.3"/>
      <path class="st1" d="M542,123.8c193.5,0,193.5,288,387,288"/>
      <path class="st6" d="M542,260.4c193.5,0,193.5-228.7,387-228.7"/>
      <path class="st6" d="M542,247.4c193.5,0,193.5-21.4,387-21.4"/>
      <path class="st1" d="M542,159.9c193.5,0,193.5-129.2,387-129.2"/>
      <path class="st1" d="M542,122.8c193.5,0,193.5,153.4,387,153.4"/>
      <path class="st1" d="M542,168c193.5,0,193.5,405.4,387,405.4"/>
      <path class="st8" d="M542,359.3c193.5,0,193.5-219.8,387-219.8"/>
      <path class="st5" d="M542,234.3c193.5,0,193.5,340.1,387,340.1"/>
      <path class="st1" d="M542,88.6c193.5,0,193.5,61.9,387,61.9"/>
      <path class="st1" d="M542,167c193.5,0,193.5,317,387,317"/>
      <path class="st6" d="M542,328c193.5,0,193.5-26.8,387-26.8"/>
      <path class="st8" d="M542,375.4c193.5,0,193.5-58.1,387-58.1"/>
      <path class="st8" d="M542,394.5c193.5,0,193.5-65.2,387-65.2"/>
      <path class="st6" d="M542,233.3c193.5,0,193.5,317.9,387,317.9"/>
      <path class="st8" d="M542,491.2c193.5,0,193.5-404.2,387-404.2"/>
      <path class="st1" d="M542,162.9c193.5,0,193.5,62.1,387,62.1"/>
      <rect class="st49" x="542" y="61.8" width="25" height="538.2"/>
      <g class="st13">
        <text class="st25" transform="translate(547.4 91.2)"><tspan x="0" y="0">4,0</tspan></text>
      </g>
      <g class="st13">
        <text class="st25" transform="translate(547.6 110.2)"><tspan x="0" y="0">4,5</tspan></text>
      </g>
      <g class="st13">
        <text class="st25" transform="translate(547.7 126.8)"><tspan x="0" y="0">4,6</tspan></text>
      </g>
      <g class="st13">
        <text class="st25" transform="translate(547.6 139.5)"><tspan x="0" y="0">4,7</tspan></text>
      </g>
      <g class="st13">
        <text class="st25" transform="translate(547.6 152)"><tspan x="0" y="0">4,8</tspan></text>
      </g>
      <g class="st13">
        <text class="st25" transform="translate(547.8 167)"><tspan x="0" y="0">5,0</tspan></text>
      </g>
      <g class="st13">
        <text class="st25" transform="translate(547.8 182.4)"><tspan x="0" y="0">5,2</tspan></text>
      </g>
      <g class="st13">
        <text class="st25" transform="translate(547.7 195.6)"><tspan x="0" y="0">5,3</tspan></text>
      </g>
      <g class="st13">
        <text class="st25" transform="translate(547.9 209.5)"><tspan x="0" y="0">5,4</tspan></text>
      </g>
      <g class="st13">
        <text class="st25" transform="translate(547.7 230.3)"><tspan x="0" y="0">5,5</tspan></text>
      </g>
      <g class="st13">
        <text class="st25" transform="translate(547.9 250.7)"><tspan x="0" y="0">5,6</tspan></text>
      </g>
      <g class="st13">
        <text class="st25" transform="translate(547.9 266)"><tspan x="0" y="0">5,7</tspan></text>
      </g>
      <g class="st13">
        <text class="st25" transform="translate(547.9 284.6)"><tspan x="0" y="0">5,8</tspan></text>
      </g>
      <g class="st13">
        <text class="st25" transform="translate(548 301.2)"><tspan x="0" y="0">5,9</tspan></text>
      </g>
      <g class="st13">
        <text class="st25" transform="translate(547.8 329.3)"><tspan x="0" y="0">6,0</tspan></text>
      </g>
      <g class="st13">
        <text class="st25" transform="translate(548 361.7)"><tspan x="0" y="0">6,1</tspan></text>
      </g>
      <g class="st13">
        <text class="st25" transform="translate(547.8 377.9)"><tspan x="0" y="0">6,2</tspan></text>
      </g>
      <g class="st13">
        <text class="st25" transform="translate(547.4 395)"><tspan x="0" y="0">6,3</tspan></text>
      </g>
      <g class="st13">
        <text class="st25" transform="translate(547.4 424.2)"><tspan x="0" y="0">6,5</tspan></text>
      </g>
      <g class="st13">
        <text class="st25" transform="translate(547.4 446.8)"><tspan x="0" y="0">6,6</tspan></text>
      </g>
      <g class="st13">
        <text class="st25" transform="translate(547.4 460.7)"><tspan x="0" y="0">6,7</tspan></text>
      </g>
      <g class="st13">
        <text class="st25" transform="translate(547.4 475.4)"><tspan x="0" y="0">6,8</tspan></text>
      </g>
      <g class="st13">
        <text class="st25" transform="translate(547.5 502.1)"><tspan x="0" y="0">7,0</tspan></text>
      </g>
      <g id="Diseñador_x2F_a" class="st13">
        <g class="st13">
          <text class="st10" transform="translate(82.8 199.9)"><tspan x="0" y="0">Diseñador(a)</tspan></text>
        </g>
      </g>
      <g id="Diseñador_x2F_a_con_mención_Industri">
        <g>
          <g class="st13">
            <text class="st10" transform="translate(15.2 260.4)"><tspan x="0" y="0">Diseñador(a) con mención</tspan></text>
          </g>
          <g class="st13">
            <text class="st10" transform="translate(42.2 273.4)"><tspan x="0" y="0">Industrial y Servicios</tspan></text>
          </g>
        </g>
      </g>
      <g id="Diseñador_x2F_a_con_mención_en_Visua">
        <g>
          <g class="st13">
            <text class="st10" transform="translate(16.7 364.3)"><tspan x="0" y="0">Diseñador(a) con mención</tspan></text>
          </g>
          <g class="st13">
            <text class="st10" transform="translate(31.7 377.3)"><tspan x="0" y="0">en Visualidad y Medios</tspan></text>
          </g>
        </g>
      </g>
      <g id="Mónica_Santibañez_x2A_">
        <g class="st13">
          <text class="st14" transform="translate(937.9 476.4)"><tspan x="0" y="0">Mónica Santibañez*</tspan></text>
        </g>
      </g>
      <g id="Macarena_Ruiz_x2A_">
        <g class="st13">
          <text class="st14" transform="translate(938 465.4)"><tspan x="0" y="0">Macarena Ruiz*</tspan></text>
        </g>
      </g>
      <g id="Hans_Stange" class="st13">
        <text class="st17" transform="translate(938.2 516.3)"><tspan x="0" y="0">Hans Stange</tspan></text>
      </g>
      <g id="Raúl_Molina_x2A_">
        <g class="st13">
          <text class="st14" transform="translate(938.1 293.2)"><tspan x="0" y="0">Raúl Molina*</tspan></text>
        </g>
      </g>
      <g id="Rebeca_Silva">
        <g class="st13">
          <text class="st17" transform="translate(938 488)"><tspan x="0" y="0">Rebeca Silva</tspan></text>
        </g>
      </g>
      <g id="Alfredo_Mora">
        <g class="st13">
          <text class="st17" transform="translate(938.5 304.5)"><tspan x="0" y="0">Alfredo Mora</tspan></text>
        </g>
      </g>
      <g id="Mauricio_Vico">
        <g class="st13">
          <text class="st17" transform="translate(938.1 542.6)"><tspan x="0" y="0">Mauricio Vico</tspan></text>
        </g>
      </g>
      <g id="Bruno_Perelli">
        <g class="st13">
          <text class="st17" transform="translate(938.1 428.2)"><tspan x="0" y="0">Bruno Perelli</tspan></text>
        </g>
      </g>
      <g id="Juan_Carlos_Lepe_x2A_">
        <g class="st13">
          <text class="st14" transform="translate(938.5 254.8)"><tspan x="0" y="0">Juan Carlos Lepe*</tspan></text>
        </g>
      </g>
      <g id="René_Perea">
        <g class="st13">
          <text class="st17" transform="translate(938 415.9)"><tspan x="0" y="0">René Perea</tspan></text>
        </g>
      </g>
      <g id="Iván_Méndez">
        <g class="st13">
          <text class="st17" transform="translate(938.1 332)"><tspan x="0" y="0">Iván Méndez</tspan></text>
        </g>
      </g>
      <g id="Paola_Benavides_x2A_">
        <g class="st13">
          <text class="st14" transform="translate(938.1 34.2)"><tspan x="0" y="0">Paola Benavides*</tspan></text>
        </g>
      </g>
      <g id="Trinidad_Jove_x2A_">
        <g class="st13">
          <text class="st14" transform="translate(938.5 228.7)"><tspan x="0" y="0">Trinidad Jove*</tspan></text>
        </g>
      </g>
      <g id="Cristián_Gómez">
        <g class="st13">
          <text class="st17" transform="translate(938.2 193.2)"><tspan x="0" y="0">Cristián Gómez</tspan></text>
        </g>
      </g>
      <g id="Daniel_Reyes">
        <g class="st13">
          <text class="st17" transform="translate(938.1 453.3)"><tspan x="0" y="0">Daniel Reyes</tspan></text>
        </g>
      </g>
      <g id="Osvaldo_Zorzano">
        <g class="st13">
          <text class="st17" transform="translate(938.1 591.4)"><tspan x="0" y="0">Osvaldo Zorzano</tspan></text>
        </g>
      </g>
      <g id="Felix_Maldonado">
        <g class="st13">
          <text class="st17" transform="translate(938.1 267.9)"><tspan x="0" y="0">Felix Maldonado</tspan></text>
        </g>
      </g>
      <g id="Gabriela_Pradenas">
        <g class="st13">
          <text class="st17" transform="translate(938.1 440.1)"><tspan x="0" y="0">Gabriela Pradenas</tspan></text>
        </g>
      </g>
      <g id="Mauricio_Tapia">
        <g class="st13">
          <text class="st17" transform="translate(938 529)"><tspan x="0" y="0">Mauricio Tapia</tspan></text>
        </g>
      </g>
      <g id="Lorna_Lares">
        <g class="st13">
          <text class="st17" transform="translate(938.1 241.7)"><tspan x="0" y="0">Lorna Lares</tspan></text>
        </g>
      </g>
      <g id="Pablo_Nuñez">
        <g class="st13">
          <text class="st17" transform="translate(938 345.3)"><tspan x="0" y="0">Pablo Nuñez</tspan></text>
        </g>
      </g>
      <g id="Antonio_Marín">
        <g class="st13">
          <text class="st17" transform="translate(938.5 281.2)"><tspan x="0" y="0">Antonio Marín</tspan></text>
        </g>
      </g>
      <g id="Sebastián_Pagueguy">
        <g class="st13">
          <text class="st17" transform="translate(937.9 402.2)"><tspan x="0" y="0">Sebastián Pagueguy</tspan></text>
        </g>
      </g>
      <g id="Pamela_Gatica">
        <g class="st13">
          <text class="st17" transform="translate(938.1 178.4)"><tspan x="0" y="0">Pamela Gatica</tspan></text>
        </g>
      </g>
      <g id="María_Paz_Morales_x2A_">
        <g class="st13">
          <text class="st14" transform="translate(938.1 318)"><tspan x="0" y="0">María Paz Morales*</tspan></text>
        </g>
      </g>
      <g id="Mariana_Young_x2A_">
        <g class="st13">
          <text class="st14" transform="translate(938.1 577)"><tspan x="0" y="0">Mariana Young*</tspan></text>
        </g>
      </g>
      <g id="Roberto_Osses">
        <g class="st13">
          <text class="st17" transform="translate(938.2 386.2)"><tspan x="0" y="0">Roberto Osses</tspan></text>
        </g>
      </g>
      <g id="Sergio_Donoso">
        <g class="st13">
          <text class="st17" transform="translate(937.9 140)"><tspan x="0" y="0">Sergio Donoso</tspan></text>
        </g>
      </g>
      <g id="Paola_De_la_Sotta">
        <g class="st13">
          <text class="st17" transform="translate(938 87.6)"><tspan x="0" y="0">Paola De la Sotta</tspan></text>
        </g>
      </g>
      <g id="Leonardo_Soto">
        <g class="st13">
          <text class="st17" transform="translate(938.3 502.6)"><tspan x="0" y="0">Leonardo Soto</tspan></text>
        </g>
      </g>
      <g id="Felipe_Cortez">
        <g class="st13">
          <text class="st17" transform="translate(938.2 69.6)"><tspan x="0" y="0">Felipe Cortez</tspan></text>
        </g>
      </g>
      <g id="Eduardo_Castillo">
        <g class="st13">
          <text class="st17" transform="translate(938.1 50)"><tspan x="0" y="0">Eduardo Castillo</tspan></text>
        </g>
      </g>
      <g id="Jenny_Abud">
        <g class="st13">
          <text class="st17" transform="translate(938.5 18.2)"><tspan x="0" y="0">Jenny Abud</tspan></text>
        </g>
      </g>
      <g id="Andrea_Wechsler_x2A_">
        <g class="st13">
          <text class="st14" transform="translate(938.5 558.8)"><tspan x="0" y="0">Andrea Wechsler*</tspan></text>
        </g>
      </g>
      <g id="Rodrigo_Dueñas">
        <g class="st13">
          <text class="st17" transform="translate(938.1 159.5)"><tspan x="0" y="0">Rodrigo Dueñas</tspan></text>
        </g>
      </g>
      <g id="Rubén_Jacob">
        <g class="st13">
          <text class="st17" transform="translate(938 211)"><tspan x="0" y="0">Rubén Jacob</tspan></text>
        </g>
      </g>
      <g id="Verónica_Ode">
        <g class="st13">
          <text class="st17" transform="translate(938.5 364.7)"><tspan x="0" y="0">Verónica Ode</tspan></text>
        </g>
      </g>
      <g id="Pablo_Domínguez">
        <g class="st13">
          <text class="st17" transform="translate(938.1 113.3)"><tspan x="0" y="0">Pablo Domínguez</tspan></text>
        </g>
      </g>
    </g>
  </g>
</svg>