<?xml version="1.0" encoding="UTF-8"?>
<svg xmlns="http://www.w3.org/2000/svg" version="1.1" viewBox="0 0 1050 600">
  <!-- Generator: Adobe Illustrator 29.4.0, SVG Export Plug-In . SVG Version: 2.1.0 Build 152)  -->
  <defs>
    <style>
      .st0, .st1, .st2, .st3, .st4, .st5, .st6, .st7, .st8, .st9, .st10, .st11, .st12, .st13, .st14, .st15, .st16, .st17, .st18, .st19, .st20, .st21, .st22, .st23, .st24, .st25, .st26 {
        isolation: isolate;
      }

      .st0, .st1, .st2, .st3, .st4, .st5, .st6, .st7, .st8, .st9, .st10, .st11, .st12, .st14, .st16, .st17, .st18, .st19, .st21, .st22, .st23, .st24, .st25, .st26 {
        mix-blend-mode: multiply;
      }

      .st0, .st1, .st2, .st3, .st4, .st5, .st6, .st7, .st8, .st9, .st10, .st11, .st12, .st16, .st17, .st18, .st19, .st21, .st22, .st23, .st24, .st25, .st26 {
        fill: none;
        stroke-miterlimit: 10;
      }

      .st0, .st1, .st2, .st18, .st19, .st21, .st22, .st24, .st26 {
        stroke: #1f5592;
      }

      .st0, .st4, .st12 {
        stroke-width: 3px;
      }

      .st1, .st11 {
        stroke-width: 4.1px;
      }

      .st2, .st3 {
        stroke-width: 6.1px;
      }

      .st3, .st4, .st5, .st6, .st7, .st8, .st9, .st10, .st17, .st25 {
        stroke: #da4f40;
      }

      .st27 {
        fill: #606060;
      }

      .st27, .st13, .st20, .st28, .st29 {
        font-family: Timeless-Normal, Timeless;
      }

      .st27, .st20, .st29 {
        font-size: 10px;
      }

      .st5, .st21 {
        stroke-width: 10.1px;
      }

      .st6 {
        stroke-width: 8.1px;
      }

      .st7 {
        stroke-width: 5.1px;
      }

      .st8 {
        stroke-width: 12.2px;
      }

      .st9 {
        stroke-width: 9.1px;
      }

      .st10, .st18 {
        stroke-width: 7.1px;
      }

      .st11, .st12, .st16, .st23 {
        stroke: #f7ce65;
      }

      .st13, .st28 {
        font-size: 11px;
      }

      .st30 {
        fill: #f7ce65;
      }

      .st17, .st23, .st26 {
        stroke-width: 2px;
      }

      .st19 {
        stroke-width: 13.2px;
      }

      .st22 {
        stroke-width: 22.3px;
      }

      .st31 {
        fill: #da4f40;
      }

      .st32 {
        fill: #1f5592;
      }

      .st33 {
        fill: #008456;
      }
    </style>
  </defs>
  <g class="st15">
    <g id="Capa_1">
      <g>
        <path d="M926,10h3v1h-3v-1Z"/>
        <path d="M926,21h3v1h-3v-1Z"/>
        <path d="M926,32h3v1h-3v-1Z"/>
        <path d="M926,43h3v1.1h-3v-1.1Z"/>
        <path d="M926,54.1h3v1h-3v-1Z"/>
        <path d="M926,65.1h3v1h-3v-1Z"/>
        <path d="M926,76.1h3v2h-3v-2Z"/>
        <path d="M926,88.1h3v2h-3v-2Z"/>
        <path d="M926,100.1h3v2.1h-3v-2.1Z"/>
        <path d="M926,112.2h3v2h-3v-2Z"/>
        <path d="M926,124.2h3v2h-3v-2Z"/>
        <path d="M926,136.2h3v2.1h-3v-2.1Z"/>
        <path d="M926,148.3h3v2h-3v-2Z"/>
        <path d="M926,160.3h3v3h-3v-3Z"/>
        <path d="M926,173.3h3v3.1h-3v-3.1Z"/>
        <path d="M926,186.4h3v3h-3v-3Z"/>
        <path d="M926,199.4h3v3.1h-3v-3.1Z"/>
        <path d="M926,212.5h3v3h-3v-3Z"/>
        <path d="M926,225.5h3v4.1h-3v-4.1Z"/>
        <path d="M926,239.6h3v4h-3v-4Z"/>
        <path d="M926,253.6h3v4.1h-3v-4.1Z"/>
        <path d="M926,267.7h3v4h-3v-4Z"/>
        <path d="M926,281.7h3v5.1h-3v-5.1Z"/>
        <path d="M926,296.8h3v6.1h-3v-6.1Z"/>
        <path d="M926,312.9h3v6.1h-3v-6.1Z"/>
        <path d="M926,329h3v6.1h-3v-6.1Z"/>
        <path d="M926,345.1h3v7.1h-3v-7.1Z"/>
        <path d="M926,362.2h3v7.1h-3v-7.1Z"/>
        <path d="M926,379.3h3v7.1h-3v-7.1Z"/>
        <path d="M926,396.4h3v8.1h-3v-8.1Z"/>
        <path d="M926,414.5h3v9.1h-3v-9.1Z"/>
        <path d="M926,433.6h3v9.2h-3v-9.2Z"/>
        <path d="M926,452.8h3v10.1h-3v-10.1Z"/>
        <path d="M926,472.9h3v11.2h-3v-11.2Z"/>
        <path d="M926,494.1h3v12.1h-3v-12.1Z"/>
        <path d="M926,516.2h3v13.2h-3v-13.2Z"/>
        <path d="M926,539.4h3v15.2h-3v-15.2Z"/>
        <path d="M149,185h3v24.3h-3v-24.3Z"/>
        <path d="M926,564.6h3v25.4h-3v-25.4Z"/>
        <path d="M149,219.3h3v82.2h-3v-82.2Z"/>
        <path d="M149,311.5h3v103.5h-3v-103.5Z"/>
      </g>
      <g class="st14">
        <path class="st9" d="M152,372.9c387,0,387,46.2,774,46.2"/>
      </g>
      <g class="st14">
        <path class="st17" d="M152,314.6c387,0,387-237.5,774-237.5"/>
      </g>
      <g class="st14">
        <path class="st12" d="M152,205.8c387,0,387,335.1,774,335.1"/>
      </g>
      <g class="st14">
        <path class="st1" d="M152,230.5c387,0,387-3,774-3"/>
      </g>
      <g class="st14">
        <path class="st1" d="M152,234.6c387,0,387,7,774,7"/>
      </g>
      <g class="st14">
        <path class="st4" d="M152,324.2c387,0,387-162.4,774-162.4"/>
      </g>
      <g class="st14">
        <path class="st25" d="M152,414.5c387,0,387,175,774,175"/>
      </g>
      <g class="st14">
        <path class="st10" d="M152,356.7c387,0,387-8.1,774-8.1"/>
      </g>
      <g class="st14">
        <path class="st22" d="M152,290.4c387,0,387,287.4,774,287.4"/>
      </g>
      <g class="st14">
        <path class="st19" d="M152,272.6c387,0,387,250.2,774,250.2"/>
      </g>
      <g class="st14">
        <path class="st21" d="M152,260.9c387,0,387,217.1,774,217.1"/>
      </g>
      <g class="st14">
        <path class="st2" d="M152,245.7c387,0,387,120.5,774,120.5"/>
      </g>
      <g class="st14">
        <path class="st8" d="M152,407.9c387,0,387,140.7,774,140.7"/>
      </g>
      <g class="st14">
        <path class="st7" d="M152,380c387,0,387,60.2,774,60.2"/>
      </g>
      <g class="st14">
        <path class="st5" d="M152,396.7c387,0,387,104.5,774,104.5"/>
      </g>
      <g class="st14">
        <path class="st11" d="M152,198.2c387,0,387,237.5,774,237.5"/>
      </g>
      <g class="st14">
        <path class="st6" d="M152,386.6c387,0,387,72.2,774,72.2"/>
      </g>
      <g class="st14">
        <path class="st17" d="M152,316.6c387,0,387-227.5,774-227.5"/>
      </g>
      <g class="st14">
        <path class="st23" d="M152,201.2c387,0,387,252.6,774,252.6"/>
      </g>
      <path class="st16" d="M152,187.5c387,0,387-13.7,774-13.7"/>
      <g class="st14">
        <path class="st23" d="M152,208.3c387,0,387,357.4,774,357.4"/>
      </g>
      <path class="st25" d="M152,318.1c387,0,387-216.4,774-216.4"/>
      <g class="st14">
        <path class="st0" d="M152,238.1c387,0,387,18.1,774,18.1"/>
      </g>
      <path class="st16" d="M152,191.6c387,0,387,62.5,774,62.5"/>
      <g class="st14">
        <path class="st18" d="M152,252.3c387,0,387,130.5,774,130.5"/>
      </g>
      <g class="st14">
        <path class="st17" d="M152,328.8c387,0,387-140.4,774-140.4"/>
      </g>
      <g class="st14">
        <path class="st7" d="M152,339.4c387,0,387-39,774-39"/>
      </g>
      <g class="st14">
        <path class="st6" d="M152,364.3c387,0,387,36.1,774,36.1"/>
      </g>
      <path class="st16" d="M152,193.6c387,0,387,103.7,774,103.7"/>
      <g class="st14">
        <path class="st3" d="M152,345c387,0,387-29.1,774-29.1"/>
      </g>
      <g class="st14">
        <path class="st17" d="M152,326.7c387,0,387-151.3,774-151.3"/>
      </g>
      <path class="st24" d="M152,221.9c387,0,387-121.2,774-121.2"/>
      <g class="st14">
        <path class="st23" d="M152,203.3c387,0,387,291.8,774,291.8"/>
      </g>
      <path class="st24" d="M152,219.9c387,0,387-209.4,774-209.4"/>
      <g class="st14">
        <path class="st7" d="M152,350.6c387,0,387-18.1,774-18.1"/>
      </g>
      <path class="st16" d="M152,185.5c387,0,387-164,774-164"/>
      <path class="st25" d="M152,312c387,0,387-279.5,774-279.5"/>
      <g class="st14">
        <path class="st26" d="M152,227.5c387,0,387-26.1,774-26.1"/>
      </g>
      <g class="st14">
        <path class="st7" d="M152,334.3c387,0,387-50,774-50"/>
      </g>
      <path class="st16" d="M152,188.6c387,0,387-1.7,774-1.7"/>
      <path class="st16" d="M152,190.6c387,0,387,22.4,774,22.4"/>
      <path class="st24" d="M152,220.9c387,0,387-177.3,774-177.3"/>
      <g class="st14">
        <path class="st17" d="M152,330.8c387,0,387-116.3,774-116.3"/>
      </g>
      <path class="st16" d="M152,194.6c387,0,387,134.9,774,134.9"/>
      <g class="st14">
        <path class="st26" d="M152,223.4c387,0,387-110.2,774-110.2"/>
      </g>
      <path class="st16" d="M152,189.6c387,0,387,10.3,774,10.3"/>
      <g class="st14">
        <path class="st25" d="M152,391.2c387,0,387,92.4,774,92.4"/>
      </g>
      <g class="st14">
        <path class="st17" d="M152,319.6c387,0,387-194.4,774-194.4"/>
      </g>
      <g class="st14">
        <path class="st0" d="M152,241.2c387,0,387,29,774,29"/>
      </g>
      <path class="st16" d="M152,192.6c387,0,387,75.6,774,75.6"/>
      <g class="st14">
        <path class="st26" d="M152,225.4c387,0,387-88.2,774-88.2"/>
      </g>
      <g class="st14">
        <path class="st17" d="M152,321.7c387,0,387-172.4,774-172.4"/>
      </g>
      <path class="st16" d="M152,195.7c387,0,387,167,774,167"/>
      <path class="st16" d="M152,186.5c387,0,387-131.9,774-131.9"/>
      <path class="st25" d="M152,313c387,0,387-247.4,774-247.4"/>
      <g id="Mónica_Santibañez_x2A_">
        <text class="st27" transform="translate(932.8 13.2)"><tspan x="0" y="0">Mónica Santibañez*</tspan></text>
      </g>
      <g id="Macarena_Ruiz_x2A_">
        <text class="st27" transform="translate(932.9 25.2)"><tspan x="0" y="0">Macarena Ruiz*</tspan></text>
      </g>
      <text id="Hans_Stange" class="st20" transform="translate(933 36.3)"><tspan x="0" y="0">Hans Stange</tspan></text>
      <g id="Raúl_Molina_x2A_">
        <text class="st27" transform="translate(932.8 47.5)"><tspan x="0" y="0">Raúl Molina*</tspan></text>
      </g>
      <g id="Rebeca_Silva">
        <text class="st29" transform="translate(932.8 58.8)"><tspan x="0" y="0">Rebeca Silva</tspan></text>
      </g>
      <g id="Alfredo_Mora">
        <text class="st29" transform="translate(933.3 69.2)"><tspan x="0" y="0">Alfredo Mora</tspan></text>
      </g>
      <g id="Mauricio_Vico">
        <text class="st29" transform="translate(932.8 80.3)"><tspan x="0" y="0">Mauricio Vico</tspan></text>
      </g>
      <g id="Bruno_Perelli">
        <text class="st29" transform="translate(932.9 92.2)"><tspan x="0" y="0">Bruno Perelli</tspan></text>
      </g>
      <g id="Juan_Carlos_Lepe_x2A_">
        <text class="st27" transform="translate(933.3 103.1)"><tspan x="0" y="0">Juan Carlos Lepe*</tspan></text>
      </g>
      <g id="René_Perea">
        <text class="st29" transform="translate(932.9 115.9)"><tspan x="0" y="0">René Perea</tspan></text>
      </g>
      <g id="Iván_Méndez">
        <text class="st29" transform="translate(932.8 128.2)"><tspan x="0" y="0">Iván Méndez</tspan></text>
      </g>
      <g id="Paola_Benavides_x2A_">
        <text class="st27" transform="translate(932.7 140.2)"><tspan x="0" y="0">Paola Benavides*</tspan></text>
      </g>
      <g id="Trinidad_Jove_x2A_">
        <text class="st27" transform="translate(933.2 152)"><tspan x="0" y="0">Trinidad Jove*</tspan></text>
      </g>
      <g id="Cristián_Gómez">
        <text class="st29" transform="translate(933.2 164.7)"><tspan x="0" y="0">Cristián Gómez</tspan></text>
      </g>
      <g id="Daniel_Reyes">
        <text class="st29" transform="translate(933 178.1)"><tspan x="0" y="0">Daniel Reyes</tspan></text>
      </g>
      <g id="Osvaldo_Zorzano">
        <text class="st29" transform="translate(933 191.4)"><tspan x="0" y="0">Osvaldo Zorzano</tspan></text>
      </g>
      <g id="Felix_Maldonado">
        <text class="st29" transform="translate(932.8 204.7)"><tspan x="0" y="0">Felix Maldonado</tspan></text>
      </g>
      <g id="Gabriela_Pradenas">
        <text class="st29" transform="translate(932.8 218)"><tspan x="0" y="0">Gabriela Pradenas</tspan></text>
      </g>
      <g id="Mauricio_Tapia">
        <text class="st29" transform="translate(932.8 230.5)"><tspan x="0" y="0">Mauricio Tapia</tspan></text>
      </g>
      <g id="Lorna_Lares">
        <text class="st29" transform="translate(933.2 245.1)"><tspan x="0" y="0">Lorna Lares</tspan></text>
      </g>
      <g id="Pablo_Nuñez">
        <text class="st29" transform="translate(932.7 258.7)"><tspan x="0" y="0">Pablo Nuñez</tspan></text>
      </g>
      <g id="Antonio_Marín">
        <text class="st29" transform="translate(933.3 271.7)"><tspan x="0" y="0">Antonio Marín</tspan></text>
      </g>
      <g id="Sebastián_Pagueguy">
        <text class="st29" transform="translate(932.6 287.4)"><tspan x="0" y="0">Sebastián Pagueguy</tspan></text>
      </g>
      <g id="Pamela_Gatica">
        <text class="st29" transform="translate(932.8 302.9)"><tspan x="0" y="0">Pamela Gatica</tspan></text>
      </g>
      <g id="María_Paz_Morales_x2A_">
        <text class="st27" transform="translate(932.7 319)"><tspan x="0" y="0">María Paz Morales*</tspan></text>
      </g>
      <g id="Mariana_Young_x2A_">
        <text class="st27" transform="translate(932.8 335.1)"><tspan x="0" y="0">Mariana Young*</tspan></text>
      </g>
      <g id="Roberto_Osses">
        <text class="st29" transform="translate(932.8 352.2)"><tspan x="0" y="0">Roberto Osses</tspan></text>
      </g>
      <g id="Sergio_Donoso">
        <text class="st29" transform="translate(932.7 369.3)"><tspan x="0" y="0">Sergio Donoso</tspan></text>
      </g>
      <g id="Paola_De_la_Sotta">
        <text class="st29" transform="translate(932.8 386.5)"><tspan x="0" y="0">Paola De la Sotta</tspan></text>
      </g>
      <g id="Leonardo_Soto">
        <text class="st29" transform="translate(932.7 404.5)"><tspan x="0" y="0">Leonardo Soto</tspan></text>
      </g>
      <g id="Felipe_Cortez">
        <text class="st29" transform="translate(933.2 422.5)"><tspan x="0" y="0">Felipe Cortez</tspan></text>
      </g>
      <g id="Eduardo_Castillo">
        <text class="st29" transform="translate(932.8 442)"><tspan x="0" y="0">Eduardo Castillo</tspan></text>
      </g>
      <g id="Jenny_Abud">
        <text class="st29" transform="translate(933.2 461)"><tspan x="0" y="0">Jenny Abud</tspan></text>
      </g>
      <g id="Andrea_Wechsler_x2A_">
        <text class="st27" transform="translate(933.2 482.3)"><tspan x="0" y="0">Andrea Wechsler*</tspan></text>
      </g>
      <g id="Rodrigo_Dueñas">
        <text class="st29" transform="translate(932.8 504)"><tspan x="0" y="0">Rodrigo Dueñas</tspan></text>
      </g>
      <g id="Rubén_Jacob">
        <text class="st29" transform="translate(932.8 525.9)"><tspan x="0" y="0">Rubén Jacob</tspan></text>
      </g>
      <g id="Verónica_Ode">
        <text class="st29" transform="translate(933.3 550.3)"><tspan x="0" y="0">Verónica Ode</tspan></text>
      </g>
      <g id="Pablo_Domínguez">
        <text class="st29" transform="translate(932.7 581.3)"><tspan x="0" y="0">Pablo Domínguez</tspan></text>
      </g>
      <g id="Diseñador_x2F_a" class="st15">
        <text class="st13" transform="translate(82.1 199.9)"><tspan x="0" y="0">Diseñador(a)</tspan></text>
      </g>
      <g id="Diseñador_x2F_a_con_mención_Industri">
        <g>
          <text class="st13" transform="translate(14.5 260.4)"><tspan x="0" y="0">Diseñador(a) con mención</tspan></text>
          <text class="st28" transform="translate(143.5 260.4)"><tspan x="0" y="0"> </tspan></text>
          <text class="st13" transform="translate(41.5 273.4)"><tspan x="0" y="0">Industrial y Servicios</tspan></text>
        </g>
      </g>
      <g id="Diseñador_x2F_a_con_mención_en_Visua">
        <g>
          <text class="st13" transform="translate(16 364.3)"><tspan x="0" y="0">Diseñador(a) con mención</tspan></text>
          <text class="st28" transform="translate(145 364.3)"><tspan x="0" y="0"> </tspan></text>
          <text class="st13" transform="translate(31 377.3)"><tspan x="0" y="0">en Visualidad y Medios</tspan></text>
        </g>
      </g>
      <rect class="st32" x="-113.2" y="182.7" width="51.2" height="51.2" rx="-5.4" ry="-5.4"/>
      <rect class="st30" x="-113.2" y="317.6" width="51.2" height="51.2" rx="-5.4" ry="-5.4"/>
      <rect class="st33" x="-113.2" y="389.4" width="51.2" height="51.2" rx="-5.4" ry="-5.4"/>
      <rect class="st31" x="-113.2" y="250.2" width="51.2" height="51.2" rx="-5.4" ry="-5.4"/>
    </g>
  </g>
</svg>