<?xml version="1.0" encoding="UTF-8"?>
<svg id="Capa_1" xmlns="http://www.w3.org/2000/svg" version="1.1" viewBox="0 0 780 400">
  <!-- Generator: Adobe Illustrator 29.4.0, SVG Export Plug-In . SVG Version: 2.1.0 Build 152)  -->
  <defs>
    <style>
      .st0, .st1, .st2, .st3, .st4, .st5, .st6 {
        fill: none;
      }

      .st0, .st1, .st2, .st3, .st4, .st6 {
        stroke-miterlimit: 10;
      }

      .st0, .st2, .st6 {
        stroke-dasharray: 4;
      }

      .st0, .st4 {
        stroke: #1f5592;
      }

      .st7 {
        stroke: #125389;
        stroke-width: 2px;
      }

      .st8 {
        fill: #fff;
        stroke: #189af6;
      }

      .st9 {
        font-family: Timeless-Normal, Timeless;
        font-size: 11px;
      }

      .st9, .st10 {
        isolation: isolate;
      }

      .st1, .st6 {
        stroke: #f7ce65;
      }

      .st2, .st3 {
        stroke: #da4f40;
      }

      .st11 {
        fill: #f7ce65;
      }

      .st12 {
        fill: #da4f40;
      }

      .st13 {
        fill: #1f5592;
      }

      .st14 {
        stroke: #fff;
      }

      .st5 {
        stroke: #000;
      }
    </style>
  </defs>
  <path class="st5" d="M24,370h6V10h-6"/>
  <path class="st5" d="M30,370h-6"/>
  <g id="_x34__x2C_0" class="st10">
    <g class="st10">
      <text class="st9" transform="translate(7.5 373)"><tspan x="0" y="0">4,0</tspan></text>
    </g>
  </g>
  <path class="st5" d="M30,346h-6"/>
  <g id="_x34__x2C_2" class="st10">
    <g class="st10">
      <text class="st9" transform="translate(7.5 348.9)"><tspan x="0" y="0">4,2</tspan></text>
    </g>
  </g>
  <path class="st5" d="M30,322h-6"/>
  <g id="_x34__x2C_4" class="st10">
    <g class="st10">
      <text class="st9" transform="translate(7.5 324.8)"><tspan x="0" y="0">4,4</tspan></text>
    </g>
  </g>
  <path class="st5" d="M30,298h-6"/>
  <g id="_x34__x2C_6" class="st10">
    <g class="st10">
      <text class="st9" transform="translate(7.5 300.8)"><tspan x="0" y="0">4,6</tspan></text>
    </g>
  </g>
  <path class="st5" d="M30,274h-6"/>
  <g id="_x34__x2C_8" class="st10">
    <g class="st10">
      <text class="st9" transform="translate(7.5 276.5)"><tspan x="0" y="0">4,8</tspan></text>
    </g>
  </g>
  <path class="st5" d="M30,250h-6"/>
  <g id="_x35__x2C_0" class="st10">
    <g class="st10">
      <text class="st9" transform="translate(7.8 253.3)"><tspan x="0" y="0">5,0</tspan></text>
    </g>
  </g>
  <path class="st5" d="M30,226h-6"/>
  <g id="_x35__x2C_2" class="st10">
    <g class="st10">
      <text class="st9" transform="translate(7.1 228.8)"><tspan x="0" y="0">5,2</tspan></text>
    </g>
  </g>
  <path class="st5" d="M30,202h-6"/>
  <g id="_x35__x2C_4" class="st10">
    <g class="st10">
      <text class="st9" transform="translate(7.5 204.7)"><tspan x="0" y="0">5,4</tspan></text>
    </g>
  </g>
  <path class="st5" d="M30,178h-6"/>
  <g id="_x35__x2C_6" class="st10">
    <g class="st10">
      <text class="st9" transform="translate(7.1 180.9)"><tspan x="0" y="0">5,6</tspan></text>
    </g>
  </g>
  <path class="st5" d="M30,154h-6"/>
  <g id="_x35__x2C_8" class="st10">
    <g class="st10">
      <text class="st9" transform="translate(7.9 156.4)"><tspan x="0" y="0">5,8</tspan></text>
    </g>
  </g>
  <path class="st5" d="M30,130h-6"/>
  <g id="_x36__x2C_0" class="st10">
    <g class="st10">
      <text class="st9" transform="translate(7.5 132.1)"><tspan x="0" y="0">6,0</tspan></text>
    </g>
  </g>
  <path class="st5" d="M30,106h-6"/>
  <g id="_x36__x2C_2" class="st10">
    <g class="st10">
      <text class="st9" transform="translate(7.9 108.2)"><tspan x="0" y="0">6,2</tspan></text>
    </g>
  </g>
  <path class="st5" d="M30,82h-6"/>
  <g id="_x36__x2C_4" class="st10">
    <g class="st10">
      <text class="st9" transform="translate(7.5 85.4)"><tspan x="0" y="0">6,4</tspan></text>
    </g>
  </g>
  <path class="st5" d="M30,58h-6"/>
  <g id="_x36__x2C_6" class="st10">
    <g class="st10">
      <text class="st9" transform="translate(7.1 60.7)"><tspan x="0" y="0">6,6</tspan></text>
    </g>
  </g>
  <path class="st5" d="M30,34h-6"/>
  <g id="_x36__x2C_8" class="st10">
    <g class="st10">
      <text class="st9" transform="translate(7.1 36.3)"><tspan x="0" y="0">6,8</tspan></text>
    </g>
  </g>
  <path class="st5" d="M30,10h-6"/>
  <g id="_x37__x2C_0" class="st10">
    <g class="st10">
      <text class="st9" transform="translate(6.7 12.4)"><tspan x="0" y="0">7,0</tspan></text>
    </g>
  </g>
  <path class="st5" d="M30,376v-6h740v6"/>
  <path class="st5" d="M93,370v6"/>
  <g id="Diseñador">
    <g class="st10">
      <text class="st9" transform="translate(69.1 386.9)"><tspan x="0" y="0">Diseñador</tspan></text>
    </g>
  </g>
  <path class="st5" d="M216,370v6"/>
  <g id="Diseñadora">
    <g class="st10">
      <text class="st9" transform="translate(189.2 386.9)"><tspan x="0" y="0">Diseñadora</tspan></text>
    </g>
  </g>
  <path class="st5" d="M339,370v6"/>
  <g id="Diseñador_V_y_M">
    <g class="st10">
      <text class="st9" transform="translate(300.5 387)"><tspan x="0" y="0">Diseñador V y M</tspan></text>
    </g>
  </g>
  <path class="st5" d="M462,370v6"/>
  <g id="Diseñadora_V_y_M">
    <g class="st10">
      <text class="st9" transform="translate(421.2 387)"><tspan x="0" y="0">Diseñadora V y M</tspan></text>
    </g>
  </g>
  <path class="st5" d="M585,370v6"/>
  <g id="Diseñador_I_y_S">
    <g class="st10">
      <text class="st9" transform="translate(547.5 386.6)"><tspan x="0" y="0">Diseñador I y S</tspan></text>
    </g>
  </g>
  <path class="st5" d="M708,370v6"/>
  <g id="Diseñadora_I_y_S">
    <g class="st10">
      <text class="st9" transform="translate(666.5 387)"><tspan x="0" y="0">Diseñadora I y S</tspan></text>
    </g>
  </g>
  <path class="st6" d="M93,10v276"/>
  <path class="st1" d="M83,10h20"/>
  <path class="st1" d="M83,286h20"/>
  <path class="st11" d="M83,106h20v84h-20v-84Z"/>
  <path class="st14" d="M83,130h20"/>
  <path class="st6" d="M216,10v300"/>
  <path class="st1" d="M206,10h20"/>
  <path class="st1" d="M206,310h20"/>
  <path class="st11" d="M206,52h20v120h-20V52Z"/>
  <path class="st14" d="M206,130h20"/>
  <path class="st2" d="M339,70v210"/>
  <path class="st3" d="M329,70h20"/>
  <path class="st3" d="M329,280h20"/>
  <path class="st12" d="M329,130h20v60h-20v-60Z"/>
  <path class="st14" d="M329,154h20"/>
  <path class="st8" d="M339,311c-.6,0-1-.4-1-1s.4-1,1-1,1,.4,1,1-.4,1-1,1Z"/>
  <path class="st3" d="M339,311c-.6,0-1-.4-1-1s.4-1,1-1,1,.4,1,1-.4,1-1,1Z"/>
  <path class="st8" d="M339,371c-.6,0-1-.4-1-1s.4-1,1-1,1,.4,1,1-.4,1-1,1Z"/>
  <path class="st2" d="M462,10v345"/>
  <path class="st3" d="M452,10h20"/>
  <path class="st3" d="M452,355h20"/>
  <path class="st12" d="M452,70h20v114h-20v-114Z"/>
  <path class="st14" d="M452,130h20"/>
  <path class="st8" d="M462,371c-.6,0-1-.4-1-1s.4-1,1-1,1,.4,1,1-.4,1-1,1Z"/>
  <path class="st8" d="M462,371c-.6,0-1-.4-1-1s.4-1,1-1,1,.4,1,1-.4,1-1,1Z"/>
  <path class="st0" d="M585,37v216"/>
  <path class="st4" d="M575,37h20"/>
  <path class="st4" d="M575,253h20"/>
  <path class="st13" d="M575,118h20v54h-20v-54Z"/>
  <path class="st14" d="M575,142h20"/>
  <path class="st4" d="M585,311c-.6,0-1-.4-1-1s.4-1,1-1,1,.4,1,1-.4,1-1,1Z"/>
  <path class="st4" d="M585,35c-.6,0-1-.4-1-1s.4-1,1-1,1,.4,1,1-.4,1-1,1Z"/>
  <path class="st0" d="M708,10v360"/>
  <path class="st4" d="M698,10h20"/>
  <path id="Layer_copy" class="st7" d="M698,370h20"/>
  <path class="st4" d="M698,370h20"/>
  <path class="st13" d="M698,52h20v138h-20V52Z"/>
  <path class="st14" d="M698,130h20"/>
  <g class="st10">
    <text class="st9" transform="translate(227.3 13.4)"><tspan x="0" y="0">7,0</tspan></text>
  </g>
  <g class="st10">
    <text class="st9" transform="translate(104.6 288.6)"><tspan x="0" y="0">4,7</tspan></text>
  </g>
  <g class="st10">
    <text class="st9" transform="translate(477.1 132.7)"><tspan x="0" y="0">6,0</tspan></text>
  </g>
  <g class="st10">
    <text class="st9" transform="translate(311.5 195.1)"><tspan x="0" y="0">5,5</tspan></text>
  </g>
  <g class="st10">
    <text class="st9" transform="translate(66.2 106.7)"><tspan x="0" y="0">6,2</tspan></text>
  </g>
  <g class="st10">
    <text class="st9" transform="translate(476.7 13.4)"><tspan x="0" y="0">7,0</tspan></text>
  </g>
  <g class="st10">
    <text class="st9" transform="translate(228.2 311.5)"><tspan x="0" y="0">4,5</tspan></text>
  </g>
  <g class="st10">
    <text class="st9" transform="translate(227.7 132.1)"><tspan x="0" y="0">6,0</tspan></text>
  </g>
  <g class="st10">
    <text class="st9" transform="translate(553.4 177.6)"><tspan x="0" y="0">5,65</tspan></text>
  </g>
  <g class="st10">
    <text class="st9" transform="translate(673.1 54.3)"><tspan x="0" y="0">6,65</tspan></text>
  </g>
  <g class="st10">
    <text class="st9" transform="translate(433.9 74.4)"><tspan x="0" y="0">6,5</tspan></text>
  </g>
  <g class="st10">
    <text class="st9" transform="translate(352.7 284)"><tspan x="0" y="0">4,75</tspan></text>
  </g>
  <g class="st10">
    <text class="st9" transform="translate(352.7 156.8)"><tspan x="0" y="0">5,8</tspan></text>
  </g>
  <g class="st10">
    <text class="st9" transform="translate(66.6 196.1)"><tspan x="0" y="0">5,5</tspan></text>
  </g>
  <g class="st10">
    <text class="st9" transform="translate(104.1 132.1)"><tspan x="0" y="0">6,0</tspan></text>
  </g>
  <g class="st10">
    <text class="st9" transform="translate(103.7 13.4)"><tspan x="0" y="0">7,0</tspan></text>
  </g>
  <g class="st10">
    <text class="st9" transform="translate(477.5 357.4)"><tspan x="0" y="0">4,125</tspan></text>
  </g>
  <g class="st10">
    <text class="st9" transform="translate(311 132.7)"><tspan x="0" y="0">6,0</tspan></text>
  </g>
  <g class="st10">
    <text class="st9" transform="translate(429.6 189)"><tspan x="0" y="0">5,55</tspan></text>
  </g>
  <g class="st10">
    <text class="st9" transform="translate(352.2 74.4)"><tspan x="0" y="0">6,5</tspan></text>
  </g>
  <g class="st10">
    <text class="st9" transform="translate(598.6 39.3)"><tspan x="0" y="0">6,77</tspan></text>
  </g>
  <g class="st10">
    <text class="st9" transform="translate(599.7 255.5)"><tspan x="0" y="0">4,98</tspan></text>
  </g>
  <g class="st10">
    <text class="st9" transform="translate(599.1 145)"><tspan x="0" y="0">5,9</tspan></text>
  </g>
  <g class="st10">
    <text class="st9" transform="translate(184 175.4)"><tspan x="0" y="0">5,65</tspan></text>
  </g>
  <g class="st10">
    <text class="st9" transform="translate(559 121)"><tspan x="0" y="0">6,1</tspan></text>
  </g>
  <g class="st10">
    <text class="st9" transform="translate(720.6 12.4)"><tspan x="0" y="0">7,0</tspan></text>
  </g>
  <g class="st10">
    <text class="st9" transform="translate(721.6 373)"><tspan x="0" y="0">4,0</tspan></text>
  </g>
  <g class="st10">
    <text class="st9" transform="translate(721 134.2)"><tspan x="0" y="0">6,0</tspan></text>
  </g>
  <g class="st10">
    <text class="st9" transform="translate(678.9 195.4)"><tspan x="0" y="0">5,5</tspan></text>
  </g>
  <g class="st10">
    <text class="st9" transform="translate(183.5 54.9)"><tspan x="0" y="0">6,65</tspan></text>
  </g>
</svg>