<?xml version="1.0" encoding="UTF-8"?>
<svg id="Capa_1" xmlns="http://www.w3.org/2000/svg" version="1.1" viewBox="0 0 800 410">
  <!-- Generator: Adobe Illustrator 29.4.0, SVG Export Plug-In . SVG Version: 2.1.0 Build 152)  -->
  <defs>
    <style>
      .st0, .st1, .st2, .st3, .st4, .st5, .st6 {
        fill: none;
      }

      .st0, .st1, .st2, .st3, .st4, .st6 {
        stroke-miterlimit: 10;
      }

      .st0, .st2, .st6 {
        stroke-dasharray: 4;
      }

      .st0, .st4 {
        stroke: #1f5592;
      }

      .st7 {
        font-family: Timeless-Normal, Timeless;
        font-size: 11px;
      }

      .st7, .st8 {
        isolation: isolate;
      }

      .st1, .st6 {
        stroke: #f7ce65;
      }

      .st2, .st3 {
        stroke: #da4f40;
      }

      .st9 {
        fill: #f7ce65;
      }

      .st10 {
        fill: #da4f40;
      }

      .st11 {
        fill: #1f5592;
      }

      .st12 {
        stroke: #fff;
      }

      .st5 {
        stroke: #000;
      }
    </style>
  </defs>
  <path class="st5" d="M24,375h6V10h-6"/>
  <path class="st5" d="M790,375H24"/>
  <g id="_x34_.0" class="st8">
    <g class="st8">
      <text class="st7" transform="translate(6.5 378)"><tspan x="0" y="0">4,0</tspan></text>
    </g>
  </g>
  <path class="st5" d="M30,350.7h-6"/>
  <g id="_x34_.2" class="st8">
    <g class="st8">
      <text class="st7" transform="translate(6.5 353.6)"><tspan x="0" y="0">4,2</tspan></text>
    </g>
  </g>
  <path class="st5" d="M30,326.3h-6"/>
  <g id="_x34_.4" class="st8">
    <g class="st8">
      <text class="st7" transform="translate(6.5 329.1)"><tspan x="0" y="0">4,4</tspan></text>
    </g>
  </g>
  <path class="st5" d="M30,302h-6"/>
  <g id="_x34_.6" class="st8">
    <g class="st8">
      <text class="st7" transform="translate(6.5 304.6)"><tspan x="0" y="0">4,6</tspan></text>
    </g>
  </g>
  <path class="st5" d="M30,277.7h-6"/>
  <g id="_x34_.8" class="st8">
    <g class="st8">
      <text class="st7" transform="translate(6.5 280)"><tspan x="0" y="0">4,8</tspan></text>
    </g>
  </g>
  <path class="st5" d="M30,253.3h-6"/>
  <g id="_x35_.0" class="st8">
    <g class="st8">
      <text class="st7" transform="translate(6.5 255.2)"><tspan x="0" y="0">5,0</tspan></text>
    </g>
  </g>
  <path class="st5" d="M30,229h-6"/>
  <g id="_x35_.2" class="st8">
    <g class="st8">
      <text class="st7" transform="translate(6.5 231.9)"><tspan x="0" y="0">5,2</tspan></text>
    </g>
  </g>
  <path class="st5" d="M30,204.7h-6"/>
  <g id="_x35_.4" class="st8">
    <g class="st8">
      <text class="st7" transform="translate(6.5 207.3)"><tspan x="0" y="0">5,4</tspan></text>
    </g>
  </g>
  <path class="st5" d="M30,180.3h-6"/>
  <g id="_x35_.6" class="st8">
    <g class="st8">
      <text class="st7" transform="translate(6.5 183.8)"><tspan x="0" y="0">5,6</tspan></text>
    </g>
  </g>
  <path class="st5" d="M30,156h-6"/>
  <g id="_x35_.8" class="st8">
    <g class="st8">
      <text class="st7" transform="translate(6.5 159.1)"><tspan x="0" y="0">5,8</tspan></text>
    </g>
  </g>
  <path class="st5" d="M30,131.7h-6"/>
  <g id="_x36_.0" class="st8">
    <g class="st8">
      <text class="st7" transform="translate(6.5 135)"><tspan x="0" y="0">6,0</tspan></text>
    </g>
  </g>
  <path class="st5" d="M30,107.3h-6"/>
  <g id="_x36_.2" class="st8">
    <g class="st8">
      <text class="st7" transform="translate(6.5 110.4)"><tspan x="0" y="0">6,2</tspan></text>
    </g>
  </g>
  <path class="st5" d="M30,83h-6"/>
  <g id="_x36_.4" class="st8">
    <g class="st8">
      <text class="st7" transform="translate(6.5 86.3)"><tspan x="0" y="0">6,4</tspan></text>
    </g>
  </g>
  <path class="st5" d="M30,58.7h-6"/>
  <g id="_x36_.6" class="st8">
    <g class="st8">
      <text class="st7" transform="translate(6.5 61.5)"><tspan x="0" y="0">6,6</tspan></text>
    </g>
  </g>
  <path class="st5" d="M30,34.3h-6"/>
  <g class="st8">
    <text class="st7" transform="translate(6.5 36.8)"><tspan x="0" y="0">6,8</tspan></text>
  </g>
  <g id="_x37_.0" class="st8">
    <g class="st8">
      <text class="st7" transform="translate(6.1 13.9)"><tspan x="0" y="0">7,0</tspan></text>
    </g>
  </g>
  <path class="st5" d="M157,375v6"/>
  <g id="Diseñador_x2F_a" class="st8">
    <g class="st8">
      <text class="st7" transform="translate(127.3 394.2)"><tspan x="0" y="0">Diseñador(a)</tspan></text>
    </g>
  </g>
  <path class="st5" d="M410,375v6"/>
  <g id="Diseñador_x2F_a_V_y_M" class="st8">
    <g class="st8">
      <text class="st7" transform="translate(366.4 394.2)"><tspan x="0" y="0">Diseñador(a) V y M</tspan></text>
    </g>
  </g>
  <path class="st5" d="M663,374v6"/>
  <g id="Diseñador_x2F_a_I_y_S" class="st8">
    <g class="st8">
      <text class="st7" transform="translate(622.7 393.9)"><tspan x="0" y="0">Diseñador(a) I y S</tspan></text>
    </g>
  </g>
  <g class="st8">
    <text class="st7" transform="translate(184.3 13.9)"><tspan x="0" y="0">7,0</tspan></text>
  </g>
  <g class="st8">
    <text class="st7" transform="translate(691.3 377)"><tspan x="0" y="0">4,0</tspan></text>
  </g>
  <g class="st8">
    <text class="st7" transform="translate(184.7 135.7)"><tspan x="0" y="0">6,0</tspan></text>
  </g>
  <g class="st8">
    <text class="st7" transform="translate(367.1 196.1)"><tspan x="0" y="0">5,5</tspan></text>
  </g>
  <g class="st8">
    <text class="st7" transform="translate(620.3 74.9)"><tspan x="0" y="0">6,5</tspan></text>
  </g>
  <path class="st0" d="M663,10v365"/>
  <path class="st4" d="M640.5,10h45"/>
  <path class="st11" d="M640.5,70.8h45v121.7h-45v-121.7Z"/>
  <path class="st12" d="M640.5,131.7h45"/>
  <path id="abajo" class="st4" d="M640.5,375h45"/>
  <g class="st8">
    <text class="st7" transform="translate(690.5 13.2)"><tspan x="0" y="0">7,0</tspan></text>
  </g>
  <g class="st8">
    <text class="st7" transform="translate(439.1 378)"><tspan x="0" y="0">4,0</tspan></text>
  </g>
  <g class="st8">
    <text class="st7" transform="translate(690.9 135.4)"><tspan x="0" y="0">6,0</tspan></text>
  </g>
  <g class="st8">
    <text class="st7" transform="translate(620.8 196)"><tspan x="0" y="0">5,5</tspan></text>
  </g>
  <g class="st8">
    <text class="st7" transform="translate(113.9 74.9)"><tspan x="0" y="0">6,5</tspan></text>
  </g>
  <path id="Layer_copy" class="st2" d="M410,10v365"/>
  <path id="Layer_copy_2" class="st3" d="M387.5,10h45"/>
  <path id="Layer_copy_3" class="st12" d="M387.5,131.7h45"/>
  <path id="Layer_copy_6" class="st10" d="M387.5,70.8h45v121.7h-45v-121.7Z"/>
  <path id="Layer_copy_7" class="st12" d="M387.5,131.7h45"/>
  <path id="abajo1" class="st3" d="M386.5,375h45"/>
  <g class="st8">
    <text class="st7" transform="translate(438.2 12.6)"><tspan x="0" y="0">7,0</tspan></text>
  </g>
  <g class="st8">
    <text class="st7" transform="translate(184.7 317.8)"><tspan x="0" y="0">4,5</tspan></text>
  </g>
  <g class="st8">
    <text class="st7" transform="translate(438.6 135)"><tspan x="0" y="0">6,0</tspan></text>
  </g>
  <g class="st8">
    <text class="st7" transform="translate(114.4 197.2)"><tspan x="0" y="0">5,5</tspan></text>
  </g>
  <g class="st8">
    <text class="st7" transform="translate(366.6 74.7)"><tspan x="0" y="0">6,5</tspan></text>
  </g>
  <path class="st6" d="M157,10v304.2"/>
  <path class="st1" d="M134.5,10h45"/>
  <path class="st1" d="M133.5,314.2h45"/>
  <path class="st9" d="M134.5,70.8h45v121.7h-45v-121.7Z"/>
  <path class="st12" d="M134.5,131.7h45"/>
</svg>